
<svg fill="currentColor" height="50" width="50" version="1.1" id="_x32_" xmlns="http://www.w3.org/2000/svg" viewBox="0 0 32 32" xml:space="preserve">
  <path class="st0" d="M12.166 25.905h7.668c1.014 0 1.474-1.475.887-2.518-.442-.786-1.166-1.677-2.345-2.183a4.134 4.134 0 0 1-2.377.75 4.132 4.132 0 0 1-2.377-.75c-1.179.506-1.903 1.397-2.345 2.183-.586 1.043-.127 2.518.888 2.518zM16 20.967a3.134 3.134 0 0 0 3.135-3.135v-.751a3.135 3.135 0 1 0-6.271 0v.751A3.135 3.135 0 0 0 16 20.967z"/>
  <path class="st0" d="M25.311 3.556h-4.74v1.016a3.56 3.56 0 0 1-3.556 3.556h-2.032a3.56 3.56 0 0 1-3.556-3.556V3.556h-4.74a2.88 2.88 0 0 0-2.88 2.879v22.686A2.88 2.88 0 0 0 6.687 32h18.622a2.879 2.879 0 0 0 2.879-2.879V6.435a2.879 2.879 0 0 0-2.879-2.879zm-.168 25.397H6.857V9.397h18.286v19.556z"/>
  <path class="st0" d="M14.984 7.111h2.032c1.4 0 2.54-1.139 2.54-2.54V2.54c0-1.401-1.14-2.54-2.54-2.54h-2.032c-1.4 0-2.54 1.139-2.54 2.54v2.032c0 1.4 1.139 2.54 2.54 2.54zm-.508-4.571a.508.508 0 0 1 .508-.508h2.032a.508.508 0 0 1 .508.508v1.016a.508.508 0 0 1-.508.508h-2.032a.508.508 0 0 1-.508-.508V2.54z"/>
</svg>
