
<svg fill="currentColor" xmlns="http://www.w3.org/2000/svg" viewBox="0 0 50 50" style="enable-background:new 0 0 474.565 474.565" xml:space="preserve" width="50" height="50">
  <path d="M26.888 10.778c-.064-1.193-1.283-.99-2.472-.99.879.234 1.71.56 2.472.99zM14.173 7.789c-4.617 0-6.743 5.844-3.052 8.784 1.258-3.36 3.763-5.772 7.047-6.725a4.926 4.926 0 0 0-3.996-2.059z"/>
  <path d="M4.634 15.658a10.242 10.242 0 0 0 .722 1.732l-1.517 1.518a1.046 1.046 0 0 0 0 1.477l2.674 2.674a1.046 1.046 0 0 0 .74.304c.275 0 .54-.11.738-.304l1.515-1.518c.227.12.479.194.715.298l-.002-.052c0-1.24.142-2.41.396-3.509-1.83-1.177-3.05-3.221-3.05-5.554a6.617 6.617 0 0 1 6.608-6.61c2.467 0 4.598 1.374 5.735 3.38a11.472 11.472 0 0 1 3.727.109 9.93 9.93 0 0 0-.645-1.547l1.517-1.518a1.037 1.037 0 0 0 .307-.738 1.036 1.036 0 0 0-.307-.738l-2.672-2.673a1.039 1.039 0 0 0-.738-.306 1.033 1.033 0 0 0-.736.306l-1.522 1.518a9.777 9.777 0 0 0-1.733-.719V1.043C17.106.467 16.641 0 16.064 0h-3.781c-.574 0-1.044.467-1.044 1.043v2.145a9.903 9.903 0 0 0-1.733.719L7.99 2.391a1.04 1.04 0 0 0-.738-.306 1.039 1.039 0 0 0-.738.305L3.839 5.062a1.049 1.049 0 0 0-.304.739 1.045 1.045 0 0 0 .304.738l1.517 1.517a9.98 9.98 0 0 0-.718 1.732H2.494c-.578 0-1.044.468-1.044 1.045v3.781c0 .575.466 1.044 1.044 1.044h2.14zm32.755 20.233c1.672-.917 2.821-2.673 2.821-4.71a5.398 5.398 0 0 0-5.393-5.391 5.347 5.347 0 0 0-2.842.829c-.496 1.973-1.276 3.861-2.297 5.5a16.152 16.152 0 0 1 7.711 3.771z"/>
  <path d="M48.548 29.141c0-.623-.506-1.127-1.126-1.127h-2.313c-.2-.652-.465-1.277-.779-1.87l1.638-1.638a1.119 1.119 0 0 0 .331-.796c0-.299-.118-.585-.331-.797l-2.883-2.884a1.122 1.122 0 0 0-.797-.331 1.118 1.118 0 0 0-.795.331l-1.641 1.639a10.536 10.536 0 0 0-1.87-.776v-2.313c0-.622-.502-1.126-1.124-1.126h-4.08c-.273 0-.514.11-.71.272.343 1.253.532 2.612.532 4.062 0 .92-.072 1.855-.206 2.784a6.967 6.967 0 0 1 2.423-.456c3.897 0 7.068 3.17 7.068 7.066 0 2.49-1.301 4.673-3.253 5.932a16.115 16.115 0 0 1 3.284 5.476c.121.042.247.072.373.072.288 0 .576-.11.797-.33l2.885-2.884c.211-.211.327-.497.327-.796s-.116-.585-.327-.797l-1.641-1.639c.314-.592.579-1.217.779-1.87h2.313c.298 0 .587-.118.797-.331a1.125 1.125 0 0 0 .331-.796l-.002-4.079zm-8.929 14.468c-1.749-5.147-6.371-8.686-11.707-9.168-1.787 1.892-3.999 3.092-6.504 3.092-2.503 0-4.717-1.2-6.502-3.092-5.339.482-9.961 4.022-11.71 9.169l-.967 2.846a2.683 2.683 0 0 0 .36 2.424A2.683 2.683 0 0 0 4.768 50h33.278c.866 0 1.677-.417 2.181-1.12a2.684 2.684 0 0 0 .358-2.424l-.967-2.847z"/>
  <path d="M12.732 21.786c0 6.384 3.886 13.233 8.677 13.233 4.792 0 8.678-6.85 8.678-13.233 0-13.233-17.355-13.259-17.355 0z"/>
</svg>
