<svg fill="currentColor" width="16" height="16" viewBox="0 0 16 16" xmlns="http://www.w3.org/2000/svg">
    <path d="M8 .025C3.582.025 0 3.596 0 8s3.582 7.975 8 7.975c4.419 0 8-3.571 8-7.975S12.418.025 8 .025zm-.361 3.2c1.273-.087 2.584.263 3.621 1.289.951.958 1.673 2.293 1.659 3.545h1.422l-2.963 3.309-2.963-3.309h1.542C9.956 6.91 9.672 6.231 8.77 5.342c-.883-.891-1.778-1.407-3.319-1.535a6.163 6.163 0 0 1 2.187-.581zM4.623 4.633l2.963 3.309H6.044c0 1.149.284 1.828 1.185 2.717.884.891 1.778 1.408 3.319 1.537-1.789.845-4.147.932-5.807-.709-.951-.958-1.675-2.293-1.659-3.545H1.659l2.964-3.309Z"/>
</svg>
