<?xml version="1.0" standalone="no"?>
<!DOCTYPE svg PUBLIC "-//W3C//DTD SVG 20010904//EN"
 "http://www.w3.org/TR/2001/REC-SVG-20010904/DTD/svg10.dtd">
<svg version="1.0" xmlns="http://www.w3.org/2000/svg"
 width="20" viewBox="0 0 351.000000 338.000000"
 preserveAspectRatio="xMidYMid meet">

<g transform="translate(0.000000,338.000000) scale(0.100000,-0.100000)"
fill="currentColor" stroke="none">
<path d="M1590 2939 c-526 -67 -958 -444 -1086 -945 -55 -217 -55 -431 0 -648
117 -461 502 -827 976 -927 136 -29 362 -31 492 -6 526 104 921 499 1025 1025
25 130 23 356 -6 492 -115 544 -561 948 -1114 1009 -109 12 -192 12 -287 0z
m341 -154 c234 -44 418 -138 587 -299 45 -44 104 -109 131 -145 282 -380 295
-898 32 -1296 -57 -87 -183 -220 -270 -284 -396 -293 -946 -293 -1342 0 -130
96 -271 263 -342 404 -41 83 -83 214 -102 319 -23 125 -16 333 14 446 60 230
157 397 323 556 217 207 471 310 774 313 63 1 149 -6 195 -14z"/>
<path d="M1532 2375 l-184 -185 -221 -115 c-222 -116 -257 -140 -257 -177 0
-11 54 -117 121 -236 l121 -217 33 -262 c19 -156 38 -269 45 -278 31 -37 43
-36 301 20 l252 55 249 -55 c254 -56 267 -57 297 -21 7 8 28 131 47 277 l34
262 120 218 c66 120 120 228 120 239 0 36 -38 62 -255 174 l-210 108 -191 189
c-142 141 -196 189 -215 189 -18 0 -69 -45 -207 -185z m368 -158 l155 -154
180 -92 c99 -51 184 -97 189 -101 5 -5 -36 -89 -94 -194 l-102 -186 -28 -221
c-16 -122 -31 -223 -34 -226 -2 -3 -99 16 -215 41 l-210 46 -211 -47 c-115
-25 -212 -44 -215 -41 -3 3 -18 106 -34 229 l-29 224 -102 183 c-57 102 -99
187 -94 192 5 4 92 51 194 104 l185 95 150 151 c82 82 152 150 154 150 3 0 75
-69 161 -153z"/>
<path d="M1390 1840 c-12 -8 -16 -45 -18 -210 -4 -270 -19 -250 191 -250 172
0 187 4 187 46 0 31 -15 34 -151 34 l-119 0 0 65 0 65 114 0 c91 0 116 3 127
16 9 11 10 20 2 32 -8 14 -31 18 -127 20 l-116 3 0 54 0 55 118 0 c64 0 123 4
130 9 8 5 12 21 10 37 l-3 29 -165 2 c-93 2 -172 -1 -180 -7z"/>
<path d="M1850 1841 c-12 -8 -16 -47 -18 -216 -4 -231 2 -255 57 -255 44 0 53
20 52 114 l-1 83 82 5 c130 7 181 45 182 137 1 55 -16 93 -53 118 -21 14 -52
18 -156 21 -75 2 -136 -1 -145 -7z m218 -77 c16 -11 22 -25 22 -53 0 -50 -18
-64 -91 -69 l-59 -4 0 71 0 71 53 0 c31 0 61 -6 75 -16z"/>
</g>
</svg>
