<svg xmlns="http://www.w3.org/2000/svg"
     viewBox="0 0 12 12"
     width="12"
     height="12">
    <path fill="currentColor"
          d="M6 0C2.686 0 0 2.686 0 6s2.686 6 6 6 6 -2.686 6 -6S9.314 0 6 0zm0 10.875c-2.688 0 -4.875 -2.187 -4.875 -4.875S3.312 1.125 6 1.125 10.875 3.312 10.875 6 8.688 10.875 6 10.875zm0.938 -3h-0.375V5.812A0.563 0.563 0 0 0 6 5.249H5.25c-0.31 0 -0.563 0.253 -0.563 0.563s0.253 0.563 0.563 0.563h0.188v1.5h-0.375c-0.31 0 -0.563 0.253 -0.563 0.563s0.253 0.563 0.563 0.563h1.875a0.563 0.563 0 0 0 0 -1.126zM6 4.5A0.75 0.75 0 1 0 6 3a0.75 0.75 0 0 0 0 1.5z"/>
</svg>