<svg xmlns="http://www.w3.org/2000/svg" height="16" viewBox="0 0 0.438 0.438" width="16">
    <path fill="currentColor"
          d="M0.403 0.019a0.048 0.048 0 0 0 -0.068 0l-0.026 0.026 0.084 0.084 0.026 -0.026a0.048 0.048 0 0 0 0 -0.068l-0.016 -0.016zM0.147 0.207a0.047 0.047 0 0 0 -0.012 0.019l-0.025 0.076c-0.002 0.007 -0.001 0.015 0.005 0.021s0.014 0.007 0.021 0.005l0.076 -0.025c0.007 -0.002 0.013 -0.006 0.019 -0.012l0.143 -0.143 -0.084 -0.084L0.147 0.207zM0.082 0.055A0.082 0.082 0 0 0 0 0.137v0.219A0.082 0.082 0 0 0 0.082 0.438h0.219a0.082 0.082 0 0 0 0.082 -0.082V0.273a0.027 0.027 0 1 0 -0.055 0v0.082a0.027 0.027 0 0 1 -0.027 0.027h-0.219a0.027 0.027 0 0 1 -0.027 -0.027v-0.219c0 -0.015 0.012 -0.027 0.027 -0.027H0.164a0.027 0.027 0 1 0 0 -0.055H0.082z"/>
</svg>