<svg width="20" height="20" viewBox="0 0 20 20" xmlns="http://www.w3.org/2000/svg">
    <path fill="currentColor" fill-rule="evenodd"
          d="M2.708 3.333a.208.208 0 0 0-.208.208v10.417c0 .115.093.208.208.208h2.083a.625.625 0 0 1 .625.625v2.658l2.856-2.856a1.458 1.458 0 0 1 1.031-.426h7.988a.208.208 0 0 0 .208-.208V3.542a.208.208 0 0 0-.208-.208H2.708zm-1.458.208c0-.805.653-1.458 1.458-1.458h14.583c.805 0 1.458.653 1.458 1.458v10.417a1.458 1.458 0 0 1-1.458 1.458H9.303a.208.208 0 0 0-.147.061l-2.917 2.917a1.214 1.214 0 0 1-2.072-.858v-2.119H2.708a1.458 1.458 0 0 1-1.458-1.458V3.542zM10 5a.625.625 0 0 1 .625.625v3.333a.625.625 0 0 1-1.25 0V5.625A.625.625 0 0 1 10 5zm0 7.5a.833.833 0 1 0 0-1.667.833.833 0 0 0 0 1.667z"/>
</svg>
