<svg fill="currentColor" width="17" height="17" viewBox="0 0 1.02 1.02" xmlns="http://www.w3.org/2000/svg">
    <g data-name="Layer 2">
        <g data-name="Layer 1">
            <g data-name="invisible box" fill="none">
                <path d="M0 0h1.02v1.02H0V0z"/>
                <path d="M0 0h1.02v1.02H0V0z"/>
                <path d="M0 0h1.02v1.02H0V0z"/>
            </g>
            <path d="m.861.393.07-.008A.159.159 0 0 0 .935.34.159.159 0 0 0 .931.295L.861.287.842.283.829.253l.01-.017.043-.057A.283.283 0 0 0 .82.117L.763.159.746.17.716.157.712.138.703.068A.159.159 0 0 0 .659.064a.159.159 0 0 0-.045.004l-.008.07-.005.019L.572.17.555.159.497.117a.283.283 0 0 0-.061.062l.043.057.011.017-.013.03-.02.004-.07.008A.159.159 0 0 0 .383.34a.159.159 0 0 0 .004.045l.07.008.019.004.013.03-.011.017-.043.057a.283.283 0 0 0 .062.062L.555.521.572.51l.03.013.004.019.009.07a.159.159 0 0 0 .044.004.159.159 0 0 0 .044-.004l.009-.07.004-.019.03-.013.017.011.057.043A.283.283 0 0 0 .882.501L.839.444.829.427l.013-.03ZM.659.425A.085.085 0 1 1 .744.34a.085.085 0 0 1-.085.085ZM.128.659h.255a.043.043 0 0 1 .042.042v.213a.043.043 0 0 1-.042.042H.128A.043.043 0 0 1 .085.914V.701A.043.043 0 0 1 .128.659Zm0-.085h.213a.023.023 0 0 0 .02-.026A.013.013 0 0 0 .359.54a.355.355 0 0 1 0-.4.023.023 0 0 0-.011-.032h-.22a.043.043 0 0 0-.043.041v.382a.043.043 0 0 0 .043.043Zm.693.089a.361.361 0 0 1-.162.038A.338.338 0 0 1 .538.68.021.021 0 0 0 .51.695v.219a.043.043 0 0 0 .042.042h.255A.043.043 0 0 0 .85.914V.682A.021.021 0 0 0 .829.661Z"/>
        </g>
    </g>
</svg>
