<svg width="16" height="16" viewBox="0 0 16 16" fill="none" xmlns="http://www.w3.org/2000/svg">
    <g clip-path="url(#clip0_1811_15216)">
        <path d="M16 3a1 1 0 0 0 -1 -1h-4V1A1 1 0 0 0 10 0h-4a1 1 0 0 0 -1 1v1h-4a1 1 0 0 0 0 2h14A1 1 0 0 0 16 3Z" fill="currentColor"/>
        <path d="M2 5v9A2 2 0 0 0 4 16h8a2 2 0 0 0 2 -2V5H2Zm9.061 7.854 -0.706 0.706a0.499 0.499 0 0 1 -0.709 0L8 11.914l-1.646 1.646a0.499 0.499 0 0 1 -0.709 0l-0.706 -0.706a0.502 0.502 0 0 1 0 -0.709l1.646 -1.646 -1.646 -1.646a0.499 0.499 0 0 1 0 -0.709l0.706 -0.705a0.499 0.499 0 0 1 0.709 0L8 9.086l1.646 -1.646a0.499 0.499 0 0 1 0.709 0l0.705 0.706a0.499 0.499 0 0 1 0 0.709l-1.646 1.646 1.646 1.646a0.502 0.502 0 0 1 0 0.709Z" fill="currentColor"/>
    </g>
    <defs>
        <clipPath id="clip0_1811_15216">
            <path width="16" height="16" fill="white" d="M0 0H16V16H0V0z"/>
        </clipPath>
    </defs>
</svg>
